<svg width="40" height="40" viewBox="0 0 40 40" xmlns="http://www.w3.org/2000/svg">
  <g fill="none" fill-rule="evenodd">
    <path d="M0 0h40v40H0z"/>
    <rect fill="#F4F7FB" y="4" width="39.7860963" height="32" rx="3.33333333"/>
    <path d="M0 33.0959238L8.73109229 17.56125c.45099197-.8024212 1.46708401-1.0873108 2.26950521-.6363188.2241756.1259954.4161552.3021563.5609161.5146977L18.88879 28.1977166c.5181614.7607773 1.5549462.9574564 2.3157235.439295a1.66666371 1.66666371 0 00.2176353-.1767639l5.446517-5.2428718c.6354169-.6116587 1.6373586-.6223859 2.2857257-.024472l10.7386566 9.9030199c-.1944131.8944127-.4914965 1.5539509-.8912503 1.9786146-.3997537.4246637-1.0541846.7759316-1.9632926 1.0538038H2.96350653c-.79105466-.1839984-1.44321403-.5129334-1.95647811-.986805C.49376434 34.6676655.1580882 33.9857944 0 33.0959238z" fill="#007FED"/>
    <circle fill="#C8D3DD" cx="29.5833333" cy="11.75" r="3.75"/>
  </g>
</svg>
