<svg width="40" height="40" viewBox="0 0 40 40" xmlns="http://www.w3.org/2000/svg" xmlns:xlink="http://www.w3.org/1999/xlink">
  <defs>
    <rect id="a" x="0" y="0" width="19.7150558" height="13.9648312" rx="1.64292132"/>
    <rect id="b" x="0" y="0" width="29.5725838" height="20.9472468" rx="2.46438198"/>
  </defs>
  <g fill="none" fill-rule="evenodd">
    <path d="M0 0h40v40H0z"/>
    <g transform="matrix(-1 0 0 1 39.430112 4)" fill="#C8D3DD">
      <use xlink:href="#a"/>
      <path d="M3.34654054 13.3043255l-.54116479 4.8348561c-.02523262.2254324.13706134.4286365.36249369.4538691.12411461.0138921.24780756-.0294408.33611789-.1177512l5.17097402-5.170974"/>
    </g>
    <g transform="translate(0 7.696573)" fill="#F4F7FB">
      <use xlink:href="#b"/>
      <path d="M5.01981081 19.9564883l-.81174719 7.2522842c-.03784892.3381485.20559201.6429546.54374054.6808036.18617191.0208382.37171134-.0441613.50417683-.1766268l7.75646101-7.756461"/>
    </g>
    <g transform="translate(4.312668 16.32191)" fill="#007FED">
      <circle cx="2.15633423" cy="2.15633423" r="2.15633423"/>
      <circle cx="18.7909126" cy="2.15633423" r="2.15633423"/>
      <circle cx="10.7816712" cy="2.15633423" r="2.15633423"/>
    </g>
  </g>
</svg>
