<svg width="40" height="40" viewBox="0 0 40 40" xmlns="http://www.w3.org/2000/svg">
  <g fill="none" fill-rule="evenodd">
    <path d="M0 0h40v40H0z"/>
    <g transform="translate(-2 2)">
      <circle fill="#F4F7FB" cx="22.5" cy="19.5" r="15.5"/>
      <path d="M11.81784142 4.29556572c-2.25922224-1.89571254-5.62746238-1.6010297-7.52317493.65819253-1.89571254 2.25922223-1.60102971 5.62746237.65819252 7.52317491l6.8649824-8.18136744zM32.86217458 4.29556572c2.25922224-1.89571254 5.6274624-1.6010297 7.52317495.65819256 1.8957125 2.25922218 1.6010297 5.62746234-.65819254 7.52317488l-6.8649824-8.18136744z" fill="#C8D3DD"/>
      <path d="M20 19.8177027V13c0-.5522847.4477153-1 1-1h1.403447c.5522848 0 1 .4477153 1 1v6.8177027l3.8767685 3.7723588c.395818.3851578.4044599 1.0182638.0193021 1.4140819a1.00106664 1.00106664 0 01-.0127532.0128708l-.9544692.9459735c-.3922662.3887747-1.0254248.3859442-1.4141995-.0063219a1.0000137 1.0000137 0 01-.0176352-.0182511L20 20.7363014v-.9185987z" fill="#007FED"/>
    </g>
  </g>
</svg>
